Coordinates
version=1
nRows=22
nColumns=24
inDegrees=yes

Units are S.I. units (second, meters, Newtons, ...)
Angles are in degrees.

endheader
time	pelvis_tilt	pelvis_list	pelvis_rotation	pelvis_tx	pelvis_ty	pelvis_tz	hip_flexion_r	hip_adduction_r	hip_rotation_r	knee_angle_r	ankle_angle_r	subtalar_angle_r	mtp_angle_r	hip_flexion_l	hip_adduction_l	hip_rotation_l	knee_angle_l	ankle_angle_l	subtalar_angle_l	mtp_angle_l	lumbar_extension	lumbar_bending	lumbar_rotation
      0.55800000	      1.00098259	      9.00778749	     -4.39676323	     -0.77992110	      0.97653007	      0.27578756	     24.75412331	     -8.18364132	      0.40165507	      0.71523522	      1.65170760	     -0.91338220	      1.03015348	    -20.41605480	     13.80901868	     10.99822075	      1.43379880	     10.14002114	    -17.30941305	     -0.13143142	    -13.42710221	     -1.48487765	     -8.58980047
      0.56216667	      0.91614031	      8.89012905	     -4.38056017	     -0.77431805	      0.97561596	      0.27622752	     24.78332073	     -8.01039112	      0.81828391	      0.56378704	      1.27267553	     -1.53584678	      1.58218005	    -20.42476724	     13.70194208	     10.83740171	      0.88323854	     10.55115744	    -16.97306490	     -0.32880348	    -13.32386233	     -1.32487698	     -8.59683563
      0.56633333	      0.84078395	      8.72928196	     -4.37761796	     -0.76865685	      0.97476279	      0.27667457	     24.82803351	     -7.79296537	      1.17883748	      0.27121706	      1.00873717	     -1.99514898	      2.13762123	    -20.43253171	     13.55777375	     10.63922462	      0.30475237	     10.98840017	    -16.60210049	     -0.50300432	    -13.25231320	     -1.12023651	     -8.48578619
      0.57050000	      0.86191706	      8.52793988	     -4.41547299	     -0.76295918	      0.97406795	      0.27717052	     24.77893056	     -7.53475081	      1.52424611	     -0.10194343	      0.73966408	     -2.39014808	      3.47118004	    -20.52296866	     13.38952080	     10.29147281	     -0.31326789	     11.51649462	    -16.02752355	     -0.86903589	    -13.29468780	     -0.85722162	     -8.43835582
      0.57466667	      0.70416392	      8.37628368	     -4.38429331	     -0.75726180	      0.97320906	      0.27759375	     24.95881921	     -7.32527057	      1.85017953	     -0.61309202	      0.40073612	     -2.94528360	      3.72646107	    -20.43076939	     13.24959139	     10.24875513	     -0.91889135	     11.71664262	    -16.04002670	     -0.92395962	    -13.10167618	     -0.65217104	     -8.35979904
      0.57883333	      0.63074297	      8.15955694	     -4.39796149	     -0.75150161	      0.97250197	      0.27812271	     25.01908957	     -7.04051798	      2.23803547	     -1.12041709	     -0.01390537	     -3.60958756	      4.01880056	    -20.40053107	     13.05634805	      9.99011223	     -1.58124080	     12.08263127	    -15.69179616	     -0.96575556	    -13.02642942	     -0.37709516	     -8.26201189
      0.58300000	      0.53548545	      7.93986992	     -4.41391523	     -0.74571318	      0.97180484	      0.27865667	     25.13686449	     -6.74860107	      2.57283393	     -1.74024814	     -0.40867509	     -4.20115922	      4.27109127	    -20.32843463	     12.86275161	      9.72522313	     -2.28897247	     12.43266361	    -15.36014578	     -0.98244976	    -12.91383155	     -0.09518216	     -8.16180977
      0.58716667	      0.45608721	      7.70585096	     -4.43847875	     -0.73990067	      0.97117414	      0.27921904	     25.24410337	     -6.43907545	      2.90076139	     -2.41012070	     -0.83359548	     -4.81389250	      4.50052482	    -20.25502244	     12.65866880	      9.43499833	     -3.02768842	     12.75548500	    -15.02447862	     -0.97674641	    -12.82344614	      0.20484311	     -8.05158192
      0.59133333	      0.40585774	      7.45068327	     -4.46236249	     -0.73407139	      0.97062471	      0.27981140	     25.32172391	     -6.11101424	      3.19574525	     -3.11714933	     -1.27175529	     -5.42242811	      4.77309407	    -20.18047038	     12.43295213	      9.06973028	     -3.84069812	     13.08634634	    -14.62730462	     -0.93901366	    -12.78975653	      0.51596994	     -7.94031257
      0.59550000	      0.29112293	      7.20896496	     -4.50209574	     -0.72817653	      0.97001459	      0.28041985	     25.51285217	     -5.78007915	      3.45672661	     -3.93591329	     -1.70930649	     -5.98827818	      4.93328696	    -20.06082272	     12.22587035	      8.82268020	     -4.60030985	     13.30476822	    -14.40805292	     -0.89222392	    -12.63220938	      0.82805332	     -7.81687889
      0.59966667	      0.25322164	      6.92089033	     -4.54759721	     -0.72227072	      0.96955778	      0.28107796	     25.59999351	     -5.40855156	      3.70023227	     -4.74282055	     -2.14312168	     -6.56528326	      5.21097712	    -19.97300805	     11.97142676	      8.41362973	     -5.46763639	     13.60923421	    -13.96377458	     -0.75592977	    -12.60575448	      1.18644800	     -7.69773877
      0.60383333	      0.12594442	      6.68407055	     -4.58784556	     -0.71634741	      0.96900807	      0.28170849	     25.83326273	     -5.08028812	      3.90603111	     -5.65381435	     -2.56125687	     -7.08235910	      5.30789968	    -19.80202619	     11.77409106	      8.19539997	     -6.29984764	     13.69420150	    -13.88667838	     -0.67573275	    -12.44065292	      1.48760421	     -7.56300323
      0.60800000	      0.06699194	      6.39901888	     -4.62969127	     -0.71040964	      0.96860094	      0.28240483	     25.96262254	     -4.70776470	      4.09871179	     -6.53119460	     -2.96807294	     -7.63002562	      5.45965142	    -19.64627492	     11.52172374	      7.79845114	     -7.26136605	     13.90343794	    -13.52777152	     -0.48398237	    -12.39463933	      1.82995826	     -7.42982151
      0.61216667	     -0.02840357	      6.14253478	     -4.68072172	     -0.70443620	      0.96817295	      0.28310171	     26.17116358	     -4.35814661	      4.23930400	     -7.49386774	     -3.31928106	     -8.07675339	      5.54080399	    -19.46831485	     11.30558052	      7.53233668	     -8.17584829	     13.93719158	    -13.42102969	     -0.31921302	    -12.27200269	      2.14962664	     -7.29246549
      0.61633333	     -0.12182189	      5.87366458	     -4.74784236	     -0.69842300	      0.96777583	      0.28383042	     26.38352383	     -3.98973510	      4.36294042	     -8.48297147	     -3.63004643	     -8.49050805	      5.58787593	    -19.27984541	     11.08292651	      7.25554806	     -9.11948340	     13.93383369	    -13.31513700	     -0.15312059	    -12.13967731	      2.49224567	     -7.15604610
      0.62050000	     -0.19875205	      5.59205102	     -4.81285677	     -0.69240123	      0.96744964	      0.28458470	     26.57290909	     -3.61121364	      4.45722424	     -9.47764974	     -3.86922740	     -8.85563784	      5.61681337	    -19.08249681	     10.84515456	      6.95632593	    -10.10863133	     13.89428660	    -13.21950406	      0.03585969	    -12.06049525	      2.83408791	     -7.01945511
      0.62466667	     -0.21973620	      5.29310135	     -4.87090140	     -0.68635707	      0.96723726	      0.28535645	     26.69039779	     -3.22629574	      4.51582709	    -10.46702487	     -4.04914116	     -9.20992052	      5.65707951	    -18.90046569	     10.58125027	      6.56463373	    -11.19654291	     13.91563258	    -12.93406375	      0.64979120	    -12.02542375	      3.21221849	     -6.88616901
      0.62883333	     -0.28981709	      5.01787839	     -4.93829700	     -0.68028571	      0.96700358	      0.28612079	     26.87073287	     -2.85801638	      4.57218922	    -11.47935342	     -4.12254275	     -9.46342067	      5.65512930	    -18.69091356	     10.36069130	      6.37160051	    -12.22040145	     13.63379022	    -13.12472972	      0.77559063	    -11.93326341	      3.56219423	     -6.77240949
      0.63300000	     -0.33907902	      4.73276569	     -4.99467604	     -0.67422728	      0.96684608	      0.28694357	     27.00762047	     -2.47998496	      4.63124625	    -12.45704847	     -4.24773359	     -9.84270625	      5.38712522	    -18.43379080	     10.10726815	      6.02436853	    -13.37004280	     13.39100143	    -13.04202964	      4.63348432	    -11.86591228	      3.89723406	     -6.65324013
      0.63716667	     -0.39449962	      4.47048205	     -5.05250597	     -0.66813554	      0.96670548	      0.28771719	     27.18604054	     -2.13555232	      4.60060603	    -13.51924032	     -4.13658666	     -9.94240794	      5.37274376	    -18.17189731	      9.89114564	      5.78627381	    -14.51276954	     13.05897298	    -13.11764322	      4.69859914	    -11.79078992	      4.21685786	     -6.50053004
      0.64133333	     -0.39784517	      4.16180541	     -5.12126054	     -0.66199750	      0.96669751	      0.28853513	     27.25915735	     -1.74270639	      4.60605158	    -14.50233382	     -3.98530471	    -10.13422503	      5.36109958	    -17.95732197	      9.63130955	      5.53500858	    -15.67159988	     12.65179499	    -13.24770643	      4.74929632	    -11.76915770	      4.61381562	     -6.39805433
      0.64550000	     -0.46056184	      3.89914218	     -5.17145940	     -0.65591199	      0.96662670	      0.28937358	     27.42044133	     -1.39476315	      4.58209841	    -15.52606859	     -3.80079595	    -10.25704220	      5.31402398	    -17.60499410	      9.39427977	      5.20498765	    -16.95961829	     12.27248167	    -13.18614965	      4.94876810	    -11.68498846	      4.90543426	     -6.25107792
